<svg id="Capa_1" enable-background="new 0 0 512 512" height="512" viewBox="0 0 512 512" width="512" xmlns="http://www.w3.org/2000/svg"><g><path d="m50.701 355.748-39.195-97.291c-6.227-15.457-1.337-33.17 11.939-43.242l64.332-48.808c6.425-4.874 14.268-7.513 22.332-7.513h73.459c12.257 0 23.715-6.078 30.59-16.225l23.69-34.969c6.874-10.147 18.333-16.225 30.59-16.225h129.423c13.48 0 25.89 7.341 32.382 19.155l66.189 120.457c5.081 9.247 5.966 20.225 2.433 30.166l-33.074 93.061c-5.236 14.733-19.179 24.575-34.815 24.575l-174.976 20.82-171.027-20.819c-15.075 0-28.638-9.159-34.272-23.142z" fill="#dedede"/><path d="m106.566 258.463 39.188 97.285c5.637 13.991 19.201 23.142 34.27 23.142l-38.886 6.837-56.164-6.837c-15.069 0-28.633-9.151-34.27-23.142l-39.188-97.285c-6.232-15.462-1.336-33.169 11.936-43.241" fill="#cacaca"/><path d="m214.155 142.67-33.955 97.756c-7.995 23.019-31.137 37.178-55.267 33.821l-113.42-15.787c-6.232-15.462-1.336-33.169 11.936-43.241l64.329-48.811c6.423-4.873 14.271-7.512 22.334-7.512h73.457c12.261-.001 23.714-6.075 30.586-16.226z" fill="#e9e9e9"/><path d="m498.864 261.259-33.08 93.063c-5.233 14.732-19.178 24.568-34.809 24.568l-51.084 13.449-66.008-13.449-8.736-66.675c-2.56-19.515 10.027-37.795 29.172-42.377l162.107-38.75c5.088 9.252 5.975 20.234 2.438 30.171z" fill="#e9e9e9"/><path d="m244.735 357.549 6.725-16.906c2.125-5.342 7.019-9.08 12.733-9.724l85.468-9.633c6.562-.74 12.877 2.738 15.761 8.678l12.885 26.54c5.024 10.348-2.513 22.386-14.016 22.386h-105.078c-11.011 0-18.548-11.11-14.478-21.341z" fill="#dedede"/><path d="m299.056 378.884h-39.837c-11.013 0-18.554-11.105-14.484-21.335l6.727-16.905c2.133-5.347 7.026-9.086 12.733-9.725l30.988-3.492c-2.225 1.875-3.997 4.296-5.12 7.108l-7.798 19.604c-4.719 11.868 4.028 24.745 16.791 24.745z" fill="#cacaca"/><path d="m491.184 378.894h-470.368c-11.496 0-20.816 9.319-20.816 20.815 0 11.496 9.32 20.816 20.816 20.816h470.369c11.496 0 20.816-9.32 20.816-20.816-.001-11.496-9.321-20.815-20.817-20.815z" fill="#ffd064"/><path d="m97.661 414.431c3.77 3.76 8.973 6.088 14.721 6.088h-91.562c-5.748 0-10.951-2.328-14.721-6.088-3.771-3.771-6.099-8.973-6.099-14.721 0-11.497 9.323-20.82 20.82-20.82h91.563c-11.497 0-20.82 9.323-20.82 20.82-.001 5.748 2.328 10.95 6.098 14.721z" fill="#ffc250"/></g></svg>